# xmcd
#
# Track frame offsets: 
#        150
#        17668
#        35703
#        47895
#        66255
#        84918
#        103470
#        119870
#        135920
#        149988
#        165453
#        182285
#        197608
#
# Disc length: 2849 seconds
#
# Revision: 6
# Processed by: cddbd v1.5.2PL0 Copyright (c) Steve Scherf et al.
# Submitted via: ExactAudioCopy v0.99pb5
#
DISCID=bd0b1f0d
DTITLE=Susan Wong - 511
DYEAR=2009
DGENRE=Jazz
TTITLE0=September
TTITLE1=I'm Not In Love
TTITLE2=You Are So Beautiful
TTITLE3=Home
TTITLE4=Umbrella
TTITLE5=Blame It On The Boogie
TTITLE6=Everytime You Go Away
TTITLE7=Billie Jean
TTITLE8=Empty Room
TTITLE9=Windmills Of My Mind
TTITLE10=It Aint Over 'Til It's Over
TTITLE11=Saving All My Love For You
TTITLE12=The Winner Takes It All
EXTD=YEAR: 2009
EXTT0=
EXTT1=
EXTT2=
EXTT3=
EXTT4=
EXTT5=
EXTT6=
EXTT7=
EXTT8=
EXTT9=
EXTT10=
EXTT11=
EXTT12=
PLAYORDER=
